<svg version="1"  >
        <symbol id="world" viewBox="0 0 48 48">
        <path fill="#7CB342"
            d="M24,4C13,4,4,13,4,24s9,20,20,20s20-9,20-20S35,4,24,4z" />
        <path fill="#0277BD"
            d="M45,24c0,11.7-9.5,21-21,21S3,35.7,3,24S12.3,3,24,3S45,12.3,45,24z M23.8,33.7c0-0.4-0.2-0.6-0.6-0.8 c-1.3-0.4-2.5-0.4-3.6-1.5c-0.2-0.4-0.2-0.8-0.4-1.3c-0.4-0.4-1.5-0.6-2.1-0.8c-0.8,0-1.7,0-2.7,0c-0.4,0-1.1,0-1.5,0 c-0.6-0.2-1.1-1.1-1.5-1.7c0-0.2,0-0.6-0.4-0.6c-0.4-0.2-0.8,0.2-1.3,0c-0.2-0.2-0.2-0.4-0.2-0.6c0-0.6,0.4-1.3,0.8-1.7 c0.6-0.4,1.3,0.2,1.9,0.2c0.2,0,0.2,0,0.4,0.2c0.6,0.2,0.8,1,0.8,1.7c0,0.2,0,0.4,0,0.4c0,0.2,0.2,0.2,0.4,0.2 c0.2-1.1,0.2-2.1,0.4-3.2c0-1.3,1.3-2.5,2.3-2.9c0.4-0.2,0.6,0.2,1.1,0c1.3-0.4,4.4-1.7,3.8-3.4c-0.4-1.5-1.7-2.9-3.4-2.7 c-0.4,0.2-0.6,0.4-1,0.6c-0.6,0.4-1.9,1.7-2.5,1.7c-1.1-0.2-1.1-1.7-0.8-2.3c0.2-0.8,2.1-3.6,3.4-3.1c0.2,0.2,0.6,0.6,0.8,0.8 c0.4,0.2,1.1,0.2,1.7,0.2c0.2,0,0.4,0,0.6-0.2c0.2-0.2,0.2-0.2,0.2-0.4c0-0.6-0.6-1.3-1-1.7c-0.4-0.4-1.1-0.8-1.7-1.1 c-2.1-0.6-5.5,0.2-7.1,1.7s-2.9,4-3.8,6.1c-0.4,1.3-0.8,2.9-1,4.4c-0.2,1-0.4,1.9,0.2,2.9c0.6,1.3,1.9,2.5,3.2,3.4 c0.8,0.6,2.5,0.6,3.4,1.7c0.6,0.8,0.4,1.9,0.4,2.9c0,1.3,0.8,2.3,1.3,3.4c0.2,0.6,0.4,1.5,0.6,2.1c0,0.2,0.2,1.5,0.2,1.7 c1.3,0.6,2.3,1.3,3.8,1.7c0.2,0,1-1.3,1-1.5c0.6-0.6,1.1-1.5,1.7-1.9c0.4-0.2,0.8-0.4,1.3-0.8c0.4-0.4,0.6-1.3,0.8-1.9 C23.8,35.1,24,34.3,23.8,33.7z M24.2,14.3c0.2,0,0.4-0.2,0.8-0.4c0.6-0.4,1.3-1.1,1.9-1.5c0.6-0.4,1.3-1.1,1.7-1.5 c0.6-0.4,1.1-1.3,1.3-1.9c0.2-0.4,0.8-1.3,0.6-1.9c-0.2-0.4-1.3-0.6-1.7-0.8c-1.7-0.4-3.1-0.6-4.8-0.6c-0.6,0-1.5,0.2-1.7,0.8 c-0.2,1.1,0.6,0.8,1.5,1.1c0,0,0.2,1.7,0.2,1.9c0.2,1-0.4,1.7-0.4,2.7c0,0.6,0,1.7,0.4,2.1L24.2,14.3z M41.8,29 c0.2-0.4,0.2-1.1,0.4-1.5c0.2-1,0.2-2.1,0.2-3.1c0-2.1-0.2-4.2-0.8-6.1c-0.4-0.6-0.6-1.3-0.8-1.9c-0.4-1.1-1-2.1-1.9-2.9 c-0.8-1.1-1.9-4-3.8-3.1c-0.6,0.2-1,1-1.5,1.5c-0.4,0.6-0.8,1.3-1.3,1.9c-0.2,0.2-0.4,0.6-0.2,0.8c0,0.2,0.2,0.2,0.4,0.2 c0.4,0.2,0.6,0.2,1,0.4c0.2,0,0.4,0.2,0.2,0.4c0,0,0,0.2-0.2,0.2c-1,1.1-2.1,1.9-3.1,2.9c-0.2,0.2-0.4,0.6-0.4,0.8 c0,0.2,0.2,0.2,0.2,0.4c0,0.2-0.2,0.2-0.4,0.4c-0.4,0.2-0.8,0.4-1.1,0.6c-0.2,0.4,0,1.1-0.2,1.5c-0.2,1.1-0.8,1.9-1.3,2.9 c-0.4,0.6-0.6,1.3-1,1.9c0,0.8-0.2,1.5,0.2,2.1c1,1.5,2.9,0.6,4.4,1.3c0.4,0.2,0.8,0.2,1.1,0.6c0.6,0.6,0.6,1.7,0.8,2.3 c0.2,0.8,0.4,1.7,0.8,2.5c0.2,1,0.6,2.1,0.8,2.9c1.9-1.5,3.6-3.1,4.8-5.2C40.6,32.4,41.2,30.7,41.8,29z" />
        </symbol>

        <symbol id="javascript" viewBox="0 0 32 32">
            <title>javascript</title>
            <path fill="#007bff" d="M0 0h32v32h-32zM29.379 24.368c-0.233-1.46-1.184-2.687-4.004-3.831-0.981-0.46-2.072-0.78-2.396-1.52-0.121-0.44-0.14-0.68-0.061-0.94 0.2-0.861 1.22-1.12 2.020-0.88 0.52 0.16 1 0.56 1.301 1.2 1.379-0.901 1.379-0.901 2.34-1.5-0.36-0.56-0.539-0.801-0.781-1.040-0.84-0.94-1.959-1.42-3.779-1.379l-0.94 0.119c-0.901 0.22-1.76 0.7-2.28 1.34-1.52 1.721-1.081 4.721 0.759 5.961 1.82 1.36 4.481 1.659 4.821 2.94 0.32 1.56-1.16 2.060-2.621 1.88-1.081-0.24-1.68-0.781-2.34-1.781l-2.44 1.401c0.28 0.64 0.6 0.919 1.080 1.479 2.32 2.341 8.12 2.221 9.161-1.339 0.039-0.12 0.32-0.94 0.099-2.2zM17.401 14.708h-2.997c0 2.584-0.012 5.152-0.012 7.74 0 1.643 0.084 3.151-0.184 3.615-0.44 0.919-1.573 0.801-2.088 0.64-0.528-0.261-0.796-0.621-1.107-1.14-0.084-0.14-0.147-0.261-0.169-0.261l-2.433 1.5c0.407 0.84 1 1.563 1.765 2.023 1.14 0.68 2.672 0.9 4.276 0.54 1.044-0.301 1.944-0.921 2.415-1.881 0.68-1.24 0.536-2.76 0.529-4.461 0.016-2.739 0-5.479 0-8.239z"></path>
        </symbol>
    </svg>