<svg
   version="1.1"
   viewBox="0 0 24 24"
   id="svg1">
  <title
     id="title1">github</title>
  <path
     d="M 9.6626584,17.490204 C 8.889598,17.753487 10.074048,17.852983 9.7551904,17.738662 9.6143569,17.688088 7.825115,17.486047 7.7135462,17.398748 7.4629717,17.201979 7.2703162,16.931075 7.0313261,16.58673 6.8142837,16.274256 6.5131065,15.819748 6.0857281,15.564086 5.9729392,15.496185 5.8503956,15.441453 5.7174879,15.403345 c -0.3267825,-0.09284 -0.6578331,0.133028 -0.7395285,0.504394 -0.081693,0.371367 0.1170562,0.747583 0.4438387,0.840425 0.045116,0.01593 0.094499,0.04157 0.094499,0.04157 0.1536371,0.09214 0.296909,0.27991 0.5572381,0.655434 0.2231394,0.321481 0.5218773,0.760747 0.9468163,1.094007 0.2024101,0.158662 0.4334753,0.295153 0.70051,0.390767 0.6188147,0.222403 1.1332477,0.401095 2.0623836,0.08377 0.3225149,-0.110165 0.7353899,-0.692094 0.6384529,-1.05861 -0.09694,-0.366517 -0.4365241,-0.574372 -0.7590396,-0.464209 z m 5.0523316,2.742293 v -2.627281 c 0.03171,-0.473907 -0.03414,-0.930494 -0.178023,-1.34551 0.473713,-0.118477 0.952914,-0.295846 1.400411,-0.570214 1.269941,-0.778762 2.131403,-2.246214 2.131403,-4.796588 0,-1.0413512 -0.314589,-2.0002529 -0.840734,-2.7582287 C 17.44448,7.2027946 17.365833,6.2459714 17.049415,5.4097036 16.975034,5.2136276 16.830543,5.0757509 16.662884,5.0189374 16.445232,4.9454955 15.606937,4.8048473 13.9968,5.9625965 12.611021,5.5877656 11.218536,5.6099368 9.9449363,5.9612108 8.3360185,4.8048473 7.4983325,4.9454955 7.2806804,5.0189374 7.100218,5.0799079 6.963043,5.2267918 6.8935406,5.4103965 6.5557834,6.3055563 6.5131065,7.2616867 6.7155166,8.1346753 6.1485248,8.9508503 5.8699058,9.9367728 5.8747826,10.917846 c 0,2.509497 0.846831,3.965171 2.0978725,4.752246 0.4584719,0.288225 0.9510845,0.474601 1.4369914,0.6007 -0.112789,0.324252 -0.1743655,0.665827 -0.1853403,1.008786 -0.00309,0.09769 -0.00182,0.196076 0.00309,0.293768 0.063759,0.30855 0.08926,0.964917 6.097e-4,2.659151 0,0.382452 0.2731316,0.692848 0.609669,0.692848 0.3365381,0 0.6096701,-0.310396 0.6096701,-0.692848 v -2.681322 c 0,-0.01455 -6.1e-4,-0.03118 -0.0012,-0.04781 -0.0036,-0.0582 -0.0043,-0.116398 -0.0025,-0.174598 0.01219,-0.393538 0.14693,-0.780147 0.40543,-1.083614 0.0884,-0.103234 0.149979,-0.240419 0.16705,-0.396309 0.04145,-0.379681 -0.195704,-0.726105 -0.529803,-0.773219 C 10.279098,15.046529 10.073639,15.0105 9.8730591,14.965468 9.3914192,14.857383 8.9475805,14.698721 8.5640983,14.457609 7.7684798,13.956681 7.1063785,13.022721 7.0947951,10.964269 7.1026991,10.104444 7.3502464,9.357554 7.8410302,8.7714046 7.9977153,8.582257 8.054415,8.3065035 7.9702803,8.0508425 7.7995724,7.5325922 7.7623828,6.9561425 7.8849263,6.3935498 c 0.2993475,0.074135 0.8254929,0.2882249 1.6137953,0.8882313 0.143272,0.1087772 0.3249539,0.1482696 0.5029774,0.092148 1.21751,-0.3859164 2.586219,-0.4170945 3.944562,0.00139 0.16522,0.050578 0.346902,0.022864 0.498709,-0.093534 0.788303,-0.6000065 1.314447,-0.8140965 1.613796,-0.8882313 0.115227,0.5307217 0.09572,1.1050927 -0.08596,1.6572926 -0.07865,0.2438826 -0.03536,0.5231004 0.12986,0.7205621 0.462128,0.5508143 0.746235,1.2970125 0.746235,2.1201165 0,2.130508 -0.679172,3.07971 -1.490642,3.577174 -0.379824,0.232797 -0.818786,0.384531 -1.294329,0.484994 -0.196313,0.04157 -0.396894,0.07344 -0.599304,0.09908 -0.128031,0.01593 -0.254842,0.07898 -0.356047,0.190532 -0.242038,0.266055 -0.248745,0.704627 -0.01463,0.979688 0.04085,0.0485 0.07926,0.09908 0.114618,0.152426 0.207287,0.31109 0.317637,0.703241 0.288983,1.120336 0,0.01662 -6.1e-4,0.03534 -0.0018,0.05404 v 2.682708 c 0,0.382452 0.273132,0.692848 0.609669,0.692848 0.336538,0 0.60967,-0.310396 0.60967,-0.692848 z"
     id="path1"
     style="stroke-width:0.64993"
     inkscape:label="icon" />
  <ellipse
     style="display:inline;fill:none;fill-opacity:1;stroke:#000000;stroke-width:1.98788;stroke-dasharray:5.96363997,1.98787999;stroke-dashoffset:0;stroke-opacity:1"
     id="path4"
     cx="11.976427"
     cy="12.023661"
     rx="10.728123"
     ry="10.775246"
     inkscape:label="loader" />
</svg>
