<svg
   width="105.79924mm"
   height="32.426682mm"
   viewBox="0 0 105.79924 32.426682"
   version="1.1"
   id="svg1"
   >
  <g
     inkscape:label="Camada 1"
     inkscape:groupmode="layer"
     id="layer1"
     transform="translate(-27.476226,-73.412893)">
    <path
       style="fill:none;stroke:#000000;stroke-width:1.065;stroke-dasharray:none;stroke-dashoffset:0"
       d="m 28.007857,81.106088 c 0.240417,-4.20175 2.400732,-0.616868 3.500983,-1.166992 0.627242,-0.313621 1.105916,-0.890749 1.750491,-1.166995 3.480102,-1.491472 7.466319,-0.946018 11.086444,-1.750491 2.99263,-0.665028 0.52619,-0.658667 4.084478,-1.166993 0.595654,-0.0851 3.744109,0.113456 4.084482,0 0.521896,-0.173966 0.674947,-0.920972 1.166992,-1.166995 1.295477,-0.647737 9.798402,-0.95151 11.086444,-0.583496 0.674296,0.192654 1.085204,0.945229 1.750491,1.166992 4.901377,1.633792 -2.346955,-3.073085 4.084482,1.750492 0.44029,0.330218 3.691429,2.518359 4.084478,3.500982 0.216705,0.541764 -0.14152,1.184415 0,1.750491 0.133424,0.533702 0.92097,0.674947 1.166995,1.166995 0.371854,0.743707 -0.202504,2.10747 0,2.917484 0.522237,2.088954 2.279753,3.921776 2.917484,5.83497 0.123013,0.369038 -0.173966,0.819065 0,1.166995 1.361284,2.72257 3.915037,3.41626 6.418469,4.667978 7.006862,3.503425 -2.50975,-0.922354 2.917483,2.333985 0.52741,0.31645 1.200365,0.30843 1.750492,0.5835 1.53575,0.76787 2.812079,2.7056 4.667977,3.50098 3.719584,1.59411 19.618968,0.72376 22.756388,-0.5835 0.89768,-0.37403 1.50575,-1.2408 2.33398,-1.75049 1.70544,-1.0495 3.60505,-1.77764 5.25148,-2.917483 3.33444,-2.30846 4.24562,-5.623793 8.16896,-7.585461"
       id="path1" />
  </g>
</svg>
